<svg width="36" height="37" viewBox="0 0 36 37" fill="none" xmlns="http://www.w3.org/2000/svg">
<path d="M13.2502 30.0834C5.33358 32.4584 5.33358 26.1251 2.16691 25.3334M24.3336 34.8334V28.7059C24.393 27.9509 24.291 27.1919 24.0343 26.4794C23.7777 25.7669 23.3724 25.1171 22.8452 24.5734C27.8169 24.0192 33.0419 22.1351 33.0419 13.4901C33.0415 11.2795 32.1912 9.15363 30.6669 7.55256C31.3887 5.61853 31.3376 3.48078 30.5244 1.5834C30.5244 1.5834 28.6561 1.02923 24.3336 3.92673C20.7046 2.9432 16.8792 2.9432 13.2502 3.92673C8.92774 1.02923 7.05941 1.5834 7.05941 1.5834C6.24617 3.48078 6.19514 5.61853 6.91691 7.55256C5.38128 9.1655 4.53007 11.3105 4.54191 13.5376C4.54191 22.1192 9.76691 24.0034 14.7386 24.6209C14.2177 25.1592 13.8159 25.8011 13.5595 26.5049C13.3031 27.2087 13.1977 27.9587 13.2502 28.7059V34.8334" stroke="#F5F5F5" stroke-width="4" stroke-linecap="round" stroke-linejoin="round"/>
</svg>
