<svg width="38" height="38" viewBox="0 0 38 38" fill="none" xmlns="http://www.w3.org/2000/svg">
<path d="M27.7083 10.2917H27.7242M11.0833 3.16673H26.9167C31.2889 3.16673 34.8333 6.71114 34.8333 11.0834V26.9167C34.8333 31.289 31.2889 34.8334 26.9167 34.8334H11.0833C6.71108 34.8334 3.16667 31.289 3.16667 26.9167V11.0834C3.16667 6.71114 6.71108 3.16673 11.0833 3.16673ZM25.3333 18.0026C25.5287 19.3203 25.3037 20.6661 24.6901 21.8485C24.0766 23.0309 23.1058 23.9898 21.9159 24.5887C20.726 25.1876 19.3775 25.3961 18.0623 25.1845C16.7471 24.9728 15.5321 24.3519 14.5902 23.4099C13.6482 22.4679 13.0272 21.2529 12.8156 19.9377C12.604 18.6225 12.8124 17.2741 13.4114 16.0842C14.0103 14.8942 14.9691 13.9235 16.1516 13.3099C17.334 12.6964 18.6798 12.4713 19.9975 12.6667C21.3416 12.866 22.586 13.4924 23.5468 14.4532C24.5077 15.414 25.134 16.6584 25.3333 18.0026Z" stroke="#F3F3F3" stroke-width="4" stroke-linecap="round" stroke-linejoin="round"/>
</svg>
